<mxfile host="65bd71144e">
    <diagram id="y22X9CAbKY4w9P3UAj9e" name="ページ1">
        <mxGraphModel dx="2088" dy="1728" grid="1" gridSize="10" guides="1" tooltips="1" connect="1" arrows="1" fold="1" page="1" pageScale="1" pageWidth="827" pageHeight="1169" math="0" shadow="0">
            <root>
                <mxCell id="0"/>
                <mxCell id="1" parent="0"/>
                <mxCell id="6" value="【登録または更新画面】&lt;br&gt;・作品情報：新規登録／更新&lt;br&gt;・展覧会情報：新規登録／更新&lt;br&gt;・販売記録：新規登録／更新&lt;br&gt;・納品記録：新規登録／更新&lt;br&gt;&lt;br&gt;［トップへ］&lt;br&gt;&lt;br&gt;追加予定&lt;br&gt;・取引先情報：新規登録／更新&lt;br&gt;・顧客情報：新規登録／更新" style="rounded=0;whiteSpace=wrap;html=1;" parent="1" vertex="1">
                    <mxGeometry x="715" y="30" width="220" height="190" as="geometry"/>
                </mxCell>
                <mxCell id="7" value="【トップ画面】&lt;br&gt;・データの登録／更新&lt;br&gt;・データの検索" style="rounded=0;whiteSpace=wrap;html=1;" parent="1" vertex="1">
                    <mxGeometry x="40" y="50" width="230" height="160" as="geometry"/>
                </mxCell>
                <mxCell id="10" value="" style="endArrow=classic;html=1;entryX=0;entryY=0.5;entryDx=0;entryDy=0;" parent="1" source="7" target="37" edge="1">
                    <mxGeometry relative="1" as="geometry">
                        <mxPoint x="440" y="270" as="sourcePoint"/>
                        <mxPoint x="650" y="290" as="targetPoint"/>
                        <Array as="points"/>
                    </mxGeometry>
                </mxCell>
                <mxCell id="11" value="データの登録／更新をクリック" style="edgeLabel;resizable=0;html=1;align=center;verticalAlign=middle;" parent="10" connectable="0" vertex="1">
                    <mxGeometry relative="1" as="geometry">
                        <mxPoint x="15" y="-40" as="offset"/>
                    </mxGeometry>
                </mxCell>
                <mxCell id="80" style="edgeStyle=none;html=1;exitX=0.75;exitY=1;exitDx=0;exitDy=0;entryX=0.25;entryY=0;entryDx=0;entryDy=0;" parent="1" source="12" target="104" edge="1">
                    <mxGeometry relative="1" as="geometry"/>
                </mxCell>
                <mxCell id="95" style="edgeStyle=none;html=1;exitX=0;exitY=0.25;exitDx=0;exitDy=0;" parent="1" source="12" target="30" edge="1">
                    <mxGeometry relative="1" as="geometry">
                        <mxPoint x="-50" y="70" as="targetPoint"/>
                        <Array as="points">
                            <mxPoint x="-50" y="523"/>
                            <mxPoint x="-50" y="290"/>
                            <mxPoint x="-50" y="90"/>
                        </Array>
                    </mxGeometry>
                </mxCell>
                <mxCell id="12" value="【選択画面】&lt;br&gt;・作品検索&lt;br&gt;・展覧会検索&lt;br&gt;・販売記録検索&lt;br&gt;・納品記録検索&lt;br&gt;&lt;br&gt;［トップへ］&lt;br&gt;&lt;br&gt;追加予定&lt;br&gt;その他情報の検索" style="rounded=0;whiteSpace=wrap;html=1;" parent="1" vertex="1">
                    <mxGeometry x="42.5" y="480" width="225" height="170" as="geometry"/>
                </mxCell>
                <mxCell id="13" value="" style="endArrow=classic;html=1;entryX=0.25;entryY=0;entryDx=0;entryDy=0;exitX=0.729;exitY=1.006;exitDx=0;exitDy=0;exitPerimeter=0;" parent="1" source="7" target="98" edge="1">
                    <mxGeometry relative="1" as="geometry">
                        <mxPoint x="190" y="240" as="sourcePoint"/>
                        <mxPoint x="540" y="250" as="targetPoint"/>
                    </mxGeometry>
                </mxCell>
                <mxCell id="14" value="データの検索をクリック" style="edgeLabel;resizable=0;html=1;align=center;verticalAlign=middle;" parent="13" connectable="0" vertex="1">
                    <mxGeometry relative="1" as="geometry">
                        <mxPoint x="65" y="-5" as="offset"/>
                    </mxGeometry>
                </mxCell>
                <mxCell id="15" value="" style="endArrow=classic;html=1;entryX=0;entryY=0.5;entryDx=0;entryDy=0;exitX=0.977;exitY=0.158;exitDx=0;exitDy=0;exitPerimeter=0;" parent="1" source="6" target="36" edge="1">
                    <mxGeometry relative="1" as="geometry">
                        <mxPoint x="700" y="150" as="sourcePoint"/>
                        <mxPoint x="1000" y="130" as="targetPoint"/>
                    </mxGeometry>
                </mxCell>
                <mxCell id="16" value="作品情報：新規登録をクリック" style="edgeLabel;resizable=0;html=1;align=center;verticalAlign=middle;" parent="15" connectable="0" vertex="1">
                    <mxGeometry relative="1" as="geometry">
                        <mxPoint x="5" y="-26" as="offset"/>
                    </mxGeometry>
                </mxCell>
                <mxCell id="29" style="edgeStyle=none;html=1;exitX=0.5;exitY=0;exitDx=0;exitDy=0;entryX=0.31;entryY=0.998;entryDx=0;entryDy=0;entryPerimeter=0;" parent="1" source="17" target="73" edge="1">
                    <mxGeometry relative="1" as="geometry">
                        <mxPoint x="1637.5" y="-90" as="targetPoint"/>
                    </mxGeometry>
                </mxCell>
                <mxCell id="17" value="【作品情報新規登録画面】&lt;br&gt;・フォームで必要情報を入力&lt;br&gt;&lt;br&gt;［登録］ボタン&lt;br&gt;［入力取消］ボタン&lt;br&gt;［戻る］ボタン" style="rounded=0;whiteSpace=wrap;html=1;" parent="1" vertex="1">
                    <mxGeometry x="1480" y="27.5" width="210" height="182.5" as="geometry"/>
                </mxCell>
                <mxCell id="18" value="" style="endArrow=classic;html=1;exitX=-0.002;exitY=0.097;exitDx=0;exitDy=0;exitPerimeter=0;" parent="1" source="6" target="30" edge="1">
                    <mxGeometry relative="1" as="geometry">
                        <mxPoint x="380" y="290" as="sourcePoint"/>
                        <mxPoint x="620" y="290" as="targetPoint"/>
                        <Array as="points"/>
                    </mxGeometry>
                </mxCell>
                <mxCell id="19" value="［トップへ］をクリック" style="edgeLabel;resizable=0;html=1;align=center;verticalAlign=middle;" parent="18" connectable="0" vertex="1">
                    <mxGeometry relative="1" as="geometry">
                        <mxPoint y="9" as="offset"/>
                    </mxGeometry>
                </mxCell>
                <mxCell id="20" value="" style="endArrow=classic;html=1;exitX=0.25;exitY=0;exitDx=0;exitDy=0;" parent="1" source="22" target="30" edge="1">
                    <mxGeometry relative="1" as="geometry">
                        <mxPoint x="990" y="90" as="sourcePoint"/>
                        <mxPoint x="460" y="-70" as="targetPoint"/>
                        <Array as="points">
                            <mxPoint x="1920" y="-30"/>
                            <mxPoint x="1480" y="-50"/>
                            <mxPoint x="850" y="-80"/>
                        </Array>
                    </mxGeometry>
                </mxCell>
                <mxCell id="21" value="［トップへ］をクリック" style="edgeLabel;resizable=0;html=1;align=center;verticalAlign=middle;" parent="20" connectable="0" vertex="1">
                    <mxGeometry relative="1" as="geometry">
                        <mxPoint x="843" y="35" as="offset"/>
                    </mxGeometry>
                </mxCell>
                <mxCell id="22" value="【登録完了画面】&lt;br&gt;・登録内容表示&lt;br&gt;&lt;br&gt;［トップへ］&lt;br&gt;［続けて登録］&lt;br&gt;&lt;br&gt;＊登録失敗時は別jspファイル" style="rounded=0;whiteSpace=wrap;html=1;" parent="1" vertex="1">
                    <mxGeometry x="2180" y="-10" width="180" height="165" as="geometry"/>
                </mxCell>
                <mxCell id="23" value="" style="endArrow=classic;html=1;exitX=0;exitY=0.747;exitDx=0;exitDy=0;entryX=0.853;entryY=1.063;entryDx=0;entryDy=0;exitPerimeter=0;entryPerimeter=0;" parent="1" source="17" target="37" edge="1">
                    <mxGeometry relative="1" as="geometry">
                        <mxPoint x="940" y="182.5" as="sourcePoint"/>
                        <mxPoint x="720" y="180" as="targetPoint"/>
                        <Array as="points">
                            <mxPoint x="1230" y="250"/>
                            <mxPoint x="970" y="280"/>
                            <mxPoint x="700" y="250"/>
                        </Array>
                    </mxGeometry>
                </mxCell>
                <mxCell id="24" value="［戻る］をクリック" style="edgeLabel;resizable=0;html=1;align=center;verticalAlign=middle;" parent="23" connectable="0" vertex="1">
                    <mxGeometry relative="1" as="geometry">
                        <mxPoint x="12" y="7" as="offset"/>
                    </mxGeometry>
                </mxCell>
                <mxCell id="25" value="" style="endArrow=classic;html=1;entryX=0;entryY=0.5;entryDx=0;entryDy=0;exitX=1.015;exitY=0.179;exitDx=0;exitDy=0;exitPerimeter=0;" parent="1" source="17" target="50" edge="1">
                    <mxGeometry relative="1" as="geometry">
                        <mxPoint x="1220" y="170" as="sourcePoint"/>
                        <mxPoint x="1320" y="170" as="targetPoint"/>
                    </mxGeometry>
                </mxCell>
                <mxCell id="26" value="登録をクリック" style="edgeLabel;resizable=0;html=1;align=center;verticalAlign=middle;" parent="25" connectable="0" vertex="1">
                    <mxGeometry relative="1" as="geometry">
                        <mxPoint y="-8" as="offset"/>
                    </mxGeometry>
                </mxCell>
                <mxCell id="31" style="edgeStyle=none;html=1;exitX=0.5;exitY=1;exitDx=0;exitDy=0;" parent="1" source="30" target="7" edge="1">
                    <mxGeometry relative="1" as="geometry"/>
                </mxCell>
                <mxCell id="30" value="index.jsp" style="rounded=1;whiteSpace=wrap;html=1;" parent="1" vertex="1">
                    <mxGeometry x="95" y="-90" width="120" height="60" as="geometry"/>
                </mxCell>
                <mxCell id="34" value="レスポンス" style="text;html=1;strokeColor=none;fillColor=none;align=center;verticalAlign=middle;whiteSpace=wrap;rounded=0;" parent="1" vertex="1">
                    <mxGeometry x="140" width="110" height="30" as="geometry"/>
                </mxCell>
                <mxCell id="44" style="edgeStyle=none;html=1;" parent="1" source="36" target="43" edge="1">
                    <mxGeometry relative="1" as="geometry"/>
                </mxCell>
                <mxCell id="36" value="InsertNewProductServlet" style="rounded=1;whiteSpace=wrap;html=1;" parent="1" vertex="1">
                    <mxGeometry x="1010" y="50" width="190" height="30" as="geometry"/>
                </mxCell>
                <mxCell id="39" style="edgeStyle=none;html=1;exitX=1;exitY=0.5;exitDx=0;exitDy=0;entryX=0;entryY=0.5;entryDx=0;entryDy=0;" parent="1" source="37" target="38" edge="1">
                    <mxGeometry relative="1" as="geometry"/>
                </mxCell>
                <mxCell id="37" value="InsertOrUpdateServlet" style="rounded=1;whiteSpace=wrap;html=1;" parent="1" vertex="1">
                    <mxGeometry x="320" y="100" width="170" height="60" as="geometry"/>
                </mxCell>
                <mxCell id="40" style="edgeStyle=none;html=1;exitX=1;exitY=0.5;exitDx=0;exitDy=0;" parent="1" source="38" target="6" edge="1">
                    <mxGeometry relative="1" as="geometry">
                        <mxPoint x="690" y="180" as="targetPoint"/>
                    </mxGeometry>
                </mxCell>
                <mxCell id="38" value="insertOrUpdate.jsp" style="rounded=1;whiteSpace=wrap;html=1;" parent="1" vertex="1">
                    <mxGeometry x="540" y="100" width="130" height="60" as="geometry"/>
                </mxCell>
                <mxCell id="41" value="forward" style="text;html=1;strokeColor=none;fillColor=none;align=center;verticalAlign=middle;whiteSpace=wrap;rounded=0;" parent="1" vertex="1">
                    <mxGeometry x="480" y="80" width="60" height="30" as="geometry"/>
                </mxCell>
                <mxCell id="42" value="レスポンス" style="text;html=1;strokeColor=none;fillColor=none;align=center;verticalAlign=middle;whiteSpace=wrap;rounded=0;" parent="1" vertex="1">
                    <mxGeometry x="620" y="80" width="110" height="30" as="geometry"/>
                </mxCell>
                <mxCell id="45" style="edgeStyle=none;html=1;entryX=-0.021;entryY=0.212;entryDx=0;entryDy=0;entryPerimeter=0;" parent="1" source="43" target="17" edge="1">
                    <mxGeometry relative="1" as="geometry"/>
                </mxCell>
                <mxCell id="43" value="insertNewProduct.jsp" style="rounded=1;whiteSpace=wrap;html=1;" parent="1" vertex="1">
                    <mxGeometry x="1260" y="50" width="160" height="30" as="geometry"/>
                </mxCell>
                <mxCell id="46" value="forward" style="text;html=1;strokeColor=none;fillColor=none;align=center;verticalAlign=middle;whiteSpace=wrap;rounded=0;" parent="1" vertex="1">
                    <mxGeometry x="1200" y="27.5" width="60" height="30" as="geometry"/>
                </mxCell>
                <mxCell id="47" value="レスポンス" style="text;html=1;strokeColor=none;fillColor=none;align=center;verticalAlign=middle;whiteSpace=wrap;rounded=0;" parent="1" vertex="1">
                    <mxGeometry x="1390" y="20" width="110" height="30" as="geometry"/>
                </mxCell>
                <mxCell id="49" value="get" style="text;html=1;strokeColor=none;fillColor=none;align=center;verticalAlign=middle;whiteSpace=wrap;rounded=0;" parent="1" vertex="1">
                    <mxGeometry x="950" y="70" width="60" height="30" as="geometry"/>
                </mxCell>
                <mxCell id="61" style="edgeStyle=none;html=1;exitX=0.5;exitY=1;exitDx=0;exitDy=0;entryX=0;entryY=0.5;entryDx=0;entryDy=0;" parent="1" source="50" target="60" edge="1">
                    <mxGeometry relative="1" as="geometry">
                        <Array as="points">
                            <mxPoint x="1895" y="120"/>
                        </Array>
                    </mxGeometry>
                </mxCell>
                <mxCell id="50" value="InsertNewProductServlet" style="rounded=1;whiteSpace=wrap;html=1;" parent="1" vertex="1">
                    <mxGeometry x="1800" y="50" width="190" height="30" as="geometry"/>
                </mxCell>
                <mxCell id="51" value="post" style="text;html=1;strokeColor=none;fillColor=none;align=center;verticalAlign=middle;whiteSpace=wrap;rounded=0;" parent="1" vertex="1">
                    <mxGeometry x="1710" y="20" width="60" height="30" as="geometry"/>
                </mxCell>
                <mxCell id="58" value="" style="shape=link;html=1;exitX=0.391;exitY=-0.071;exitDx=0;exitDy=0;exitPerimeter=0;" parent="1" source="51" target="73" edge="1">
                    <mxGeometry width="100" relative="1" as="geometry">
                        <mxPoint x="1740" y="-110" as="sourcePoint"/>
                        <mxPoint x="1716.8799999999997" y="-89.7800000000002" as="targetPoint"/>
                    </mxGeometry>
                </mxCell>
                <mxCell id="63" style="edgeStyle=none;html=1;exitX=1;exitY=0.5;exitDx=0;exitDy=0;entryX=0;entryY=0.75;entryDx=0;entryDy=0;" parent="1" source="60" target="22" edge="1">
                    <mxGeometry relative="1" as="geometry"/>
                </mxCell>
                <mxCell id="60" value="doneInsertNewProduct.jsp" style="rounded=1;whiteSpace=wrap;html=1;" parent="1" vertex="1">
                    <mxGeometry x="1940" y="103.75" width="210" height="30" as="geometry"/>
                </mxCell>
                <mxCell id="62" value="新規登録成功によりフォワード" style="text;html=1;strokeColor=none;fillColor=none;align=center;verticalAlign=middle;whiteSpace=wrap;rounded=0;" parent="1" vertex="1">
                    <mxGeometry x="1850" y="110" width="120" height="50" as="geometry"/>
                </mxCell>
                <mxCell id="64" value="レスポンス" style="text;html=1;strokeColor=none;fillColor=none;align=center;verticalAlign=middle;whiteSpace=wrap;rounded=0;" parent="1" vertex="1">
                    <mxGeometry x="2110" y="73.75" width="80" height="30" as="geometry"/>
                </mxCell>
                <mxCell id="65" value="リクエストスコープ&lt;br&gt;内容：リクエストパラメータすべて&lt;br&gt;格納属性名：&quot;newProduct&quot;" style="shape=process;whiteSpace=wrap;html=1;backgroundOutline=1;" parent="1" vertex="1">
                    <mxGeometry x="1820" y="220" width="280" height="100" as="geometry"/>
                </mxCell>
                <mxCell id="68" value="" style="curved=1;endArrow=classic;html=1;exitX=0.25;exitY=1;exitDx=0;exitDy=0;" parent="1" source="60" target="60" edge="1">
                    <mxGeometry width="50" height="50" relative="1" as="geometry">
                        <mxPoint x="2020" y="190" as="sourcePoint"/>
                        <mxPoint x="2080" y="140" as="targetPoint"/>
                        <Array as="points">
                            <mxPoint x="1970" y="180"/>
                            <mxPoint x="1980" y="220"/>
                            <mxPoint x="2040" y="250"/>
                            <mxPoint x="2100" y="190"/>
                        </Array>
                    </mxGeometry>
                </mxCell>
                <mxCell id="69" value="" style="shape=flexArrow;endArrow=classic;html=1;entryX=0.085;entryY=0.014;entryDx=0;entryDy=0;exitX=0.082;exitY=1.086;exitDx=0;exitDy=0;entryPerimeter=0;exitPerimeter=0;" parent="1" source="50" target="65" edge="1">
                    <mxGeometry width="50" height="50" relative="1" as="geometry">
                        <mxPoint x="1790" y="100" as="sourcePoint"/>
                        <mxPoint x="1840" y="50" as="targetPoint"/>
                    </mxGeometry>
                </mxCell>
                <mxCell id="70" value="get" style="text;html=1;strokeColor=none;fillColor=none;align=center;verticalAlign=middle;whiteSpace=wrap;rounded=0;" parent="1" vertex="1">
                    <mxGeometry x="260" y="130" width="60" height="30" as="geometry"/>
                </mxCell>
                <mxCell id="73" value="&lt;span style=&quot;&quot;&gt;フォーム入力内容（リクエストパラメータ）&lt;/span&gt;&lt;br style=&quot;&quot;&gt;&lt;span style=&quot;&quot;&gt;・作品タイトル : title&lt;/span&gt;&lt;br style=&quot;&quot;&gt;&lt;span style=&quot;&quot;&gt;・シリーズ : series&lt;/span&gt;&lt;br style=&quot;&quot;&gt;&lt;span style=&quot;&quot;&gt;・カテゴリー : category&lt;/span&gt;&lt;br style=&quot;&quot;&gt;&lt;span style=&quot;&quot;&gt;・釉薬 : glaze&lt;/span&gt;&lt;br style=&quot;&quot;&gt;&lt;span style=&quot;&quot;&gt;・柄 : pattern&lt;/span&gt;&lt;br style=&quot;&quot;&gt;&lt;span style=&quot;&quot;&gt;・色 : color&lt;/span&gt;&lt;br style=&quot;&quot;&gt;&lt;span style=&quot;&quot;&gt;・サイズ : size&lt;/span&gt;&lt;br style=&quot;&quot;&gt;&lt;span style=&quot;&quot;&gt;・税抜き価格 : price&lt;/span&gt;&lt;br style=&quot;&quot;&gt;&lt;span style=&quot;&quot;&gt;・在庫 : stock&lt;/span&gt;&lt;br style=&quot;&quot;&gt;&lt;span style=&quot;&quot;&gt;・制作時期 (年): productYear&lt;/span&gt;&lt;br style=&quot;&quot;&gt;&lt;span style=&quot;&quot;&gt;・オンライン取り扱い : isOnlineShop&lt;/span&gt;" style="shape=note;whiteSpace=wrap;html=1;backgroundOutline=1;darkOpacity=0.05;align=left;" parent="1" vertex="1">
                    <mxGeometry x="1540" y="-310" width="300" height="230" as="geometry"/>
                </mxCell>
                <mxCell id="76" value="" style="endArrow=classic;html=1;entryX=0.5;entryY=1;entryDx=0;entryDy=0;exitX=0.5;exitY=1;exitDx=0;exitDy=0;" parent="1" source="22" target="36" edge="1">
                    <mxGeometry relative="1" as="geometry">
                        <mxPoint x="2260" y="400" as="sourcePoint"/>
                        <mxPoint x="1810" y="390" as="targetPoint"/>
                        <Array as="points">
                            <mxPoint x="2270" y="410"/>
                            <mxPoint x="1510" y="410"/>
                        </Array>
                    </mxGeometry>
                </mxCell>
                <mxCell id="77" value="［続けて登録］をクリック" style="edgeLabel;resizable=0;html=1;align=center;verticalAlign=middle;" parent="76" connectable="0" vertex="1">
                    <mxGeometry relative="1" as="geometry"/>
                </mxCell>
                <mxCell id="85" style="edgeStyle=none;html=1;entryX=0.1;entryY=-0.038;entryDx=0;entryDy=0;exitX=0.75;exitY=1;exitDx=0;exitDy=0;entryPerimeter=0;" parent="1" source="79" target="112" edge="1">
                    <mxGeometry relative="1" as="geometry"/>
                </mxCell>
                <mxCell id="92" style="edgeStyle=none;html=1;exitX=0;exitY=0.25;exitDx=0;exitDy=0;" parent="1" source="79" target="98" edge="1">
                    <mxGeometry relative="1" as="geometry">
                        <mxPoint x="-30" y="270" as="targetPoint"/>
                        <Array as="points">
                            <mxPoint x="-30" y="960"/>
                            <mxPoint x="-30" y="300"/>
                        </Array>
                    </mxGeometry>
                </mxCell>
                <mxCell id="97" style="edgeStyle=none;html=1;exitX=0;exitY=0.5;exitDx=0;exitDy=0;" parent="1" source="79" target="83" edge="1">
                    <mxGeometry relative="1" as="geometry"/>
                </mxCell>
                <mxCell id="79" value="【作品検索条件指定画面】&lt;br&gt;フォームで検索条件を入力&lt;br&gt;&lt;br&gt;［検索］&lt;br&gt;［検索条件リセット］&lt;br&gt;［戻る］" style="rounded=0;whiteSpace=wrap;html=1;" parent="1" vertex="1">
                    <mxGeometry x="40" y="925" width="240" height="140" as="geometry"/>
                </mxCell>
                <mxCell id="81" value="作品検索をクリック" style="text;html=1;strokeColor=none;fillColor=none;align=center;verticalAlign=middle;whiteSpace=wrap;rounded=0;" parent="1" vertex="1">
                    <mxGeometry x="190" y="660" width="170" height="30" as="geometry"/>
                </mxCell>
                <mxCell id="83" value="&lt;span style=&quot;&quot;&gt;フォーム入力内容（リクエストパラメータ）&lt;/span&gt;&lt;br style=&quot;&quot;&gt;&lt;span style=&quot;&quot;&gt;・作品タイトル : title　文字入力&lt;/span&gt;&lt;br style=&quot;&quot;&gt;&lt;span style=&quot;&quot;&gt;・シリーズ : series　文字入力&lt;/span&gt;&lt;br style=&quot;&quot;&gt;&lt;span style=&quot;&quot;&gt;・カテゴリー : category　文字入力&lt;/span&gt;&lt;br style=&quot;&quot;&gt;&lt;span style=&quot;&quot;&gt;・釉薬 : glaze　文字入力&lt;/span&gt;&lt;br style=&quot;&quot;&gt;&lt;span style=&quot;&quot;&gt;・柄 : pattern　文字入力&lt;/span&gt;&lt;br style=&quot;&quot;&gt;&lt;span style=&quot;&quot;&gt;・色 : color　文字入力&lt;/span&gt;&lt;br style=&quot;&quot;&gt;&lt;span style=&quot;&quot;&gt;・サイズ : size　文字入力&lt;/span&gt;&lt;br style=&quot;&quot;&gt;&lt;span style=&quot;&quot;&gt;・税抜き価格 : price　数値入力（下限と上限指定）&lt;br&gt;&lt;/span&gt;priceLowerLimit , priceUpperLimit&lt;br style=&quot;&quot;&gt;&lt;span style=&quot;&quot;&gt;・在庫 : stock　数値入力（下限と上限指定）&lt;br&gt;&lt;/span&gt;stockLowerLimit , stockUpperLimit&lt;br style=&quot;&quot;&gt;&lt;span style=&quot;&quot;&gt;・制作時期 (年): productYear　数値入力（下限と上限入力）&lt;br&gt;&lt;/span&gt;productYearLowerLimit , productYearUpperLimit&lt;br style=&quot;&quot;&gt;&lt;span style=&quot;&quot;&gt;・オンライン取り扱い : isOnlineShop　radioボタン（どちらも、有、無の三択）&lt;br&gt;有：1　無：0　どちらも：2&lt;br&gt;&lt;/span&gt;" style="shape=note;whiteSpace=wrap;html=1;backgroundOutline=1;darkOpacity=0.05;align=left;" parent="1" vertex="1">
                    <mxGeometry x="362.5" y="820" width="467.5" height="281" as="geometry"/>
                </mxCell>
                <mxCell id="89" style="edgeStyle=none;html=1;exitX=0;exitY=0.25;exitDx=0;exitDy=0;" parent="1" source="84" target="104" edge="1">
                    <mxGeometry relative="1" as="geometry">
                        <mxPoint x="-60" y="720" as="targetPoint"/>
                        <Array as="points">
                            <mxPoint x="-70" y="1380"/>
                            <mxPoint x="-70" y="740"/>
                        </Array>
                    </mxGeometry>
                </mxCell>
                <mxCell id="91" style="edgeStyle=none;html=1;" parent="1" source="84" target="30" edge="1">
                    <mxGeometry relative="1" as="geometry">
                        <mxPoint x="-130" y="130" as="targetPoint"/>
                        <Array as="points">
                            <mxPoint x="-140" y="1430"/>
                            <mxPoint x="-130" y="100"/>
                        </Array>
                    </mxGeometry>
                </mxCell>
                <mxCell id="84" value="【検索結果表示画面】&lt;br&gt;一覧で表示&lt;br&gt;&lt;br&gt;［トップへ］&lt;br&gt;［続けて検索］" style="rounded=0;whiteSpace=wrap;html=1;" parent="1" vertex="1">
                    <mxGeometry x="40" y="1350" width="240" height="140" as="geometry"/>
                </mxCell>
                <mxCell id="86" value="検索をクリック" style="text;html=1;strokeColor=none;fillColor=none;align=center;verticalAlign=middle;whiteSpace=wrap;rounded=0;" parent="1" vertex="1">
                    <mxGeometry x="175" y="1065" width="170" height="30" as="geometry"/>
                </mxCell>
                <mxCell id="90" value="続けて検索をクリック" style="text;html=1;strokeColor=none;fillColor=none;align=center;verticalAlign=middle;whiteSpace=wrap;rounded=0;" parent="1" vertex="1">
                    <mxGeometry x="-110" y="1320" width="170" height="30" as="geometry"/>
                </mxCell>
                <mxCell id="93" value="戻るをクリック" style="text;html=1;strokeColor=none;fillColor=none;align=center;verticalAlign=middle;whiteSpace=wrap;rounded=0;" parent="1" vertex="1">
                    <mxGeometry x="-70" y="900" width="170" height="30" as="geometry"/>
                </mxCell>
                <mxCell id="94" value="トップへをクリック" style="text;html=1;strokeColor=none;fillColor=none;align=center;verticalAlign=middle;whiteSpace=wrap;rounded=0;" parent="1" vertex="1">
                    <mxGeometry x="-150" y="1430" width="170" height="30" as="geometry"/>
                </mxCell>
                <mxCell id="96" value="トップへをクリック" style="text;html=1;strokeColor=none;fillColor=none;align=center;verticalAlign=middle;whiteSpace=wrap;rounded=0;" parent="1" vertex="1">
                    <mxGeometry x="-27.5" y="490" width="70" height="70" as="geometry"/>
                </mxCell>
                <mxCell id="100" style="edgeStyle=none;html=1;exitX=0.25;exitY=1;exitDx=0;exitDy=0;entryX=0.25;entryY=0;entryDx=0;entryDy=0;" parent="1" source="98" target="99" edge="1">
                    <mxGeometry relative="1" as="geometry"/>
                </mxCell>
                <mxCell id="98" value="SelectServlet" style="rounded=1;whiteSpace=wrap;html=1;" parent="1" vertex="1">
                    <mxGeometry x="167.5" y="290" width="195" height="30" as="geometry"/>
                </mxCell>
                <mxCell id="101" style="edgeStyle=none;html=1;exitX=0.25;exitY=1;exitDx=0;exitDy=0;entryX=0.75;entryY=0;entryDx=0;entryDy=0;" parent="1" source="99" target="12" edge="1">
                    <mxGeometry relative="1" as="geometry"/>
                </mxCell>
                <mxCell id="99" value="select.jsp" style="rounded=1;whiteSpace=wrap;html=1;" parent="1" vertex="1">
                    <mxGeometry x="165" y="390" width="195" height="30" as="geometry"/>
                </mxCell>
                <mxCell id="102" value="forward" style="text;html=1;strokeColor=none;fillColor=none;align=center;verticalAlign=middle;whiteSpace=wrap;rounded=0;" parent="1" vertex="1">
                    <mxGeometry x="215" y="340" width="60" height="30" as="geometry"/>
                </mxCell>
                <mxCell id="103" value="レスポンス" style="text;html=1;strokeColor=none;fillColor=none;align=center;verticalAlign=middle;whiteSpace=wrap;rounded=0;" parent="1" vertex="1">
                    <mxGeometry x="195" y="430" width="100" height="30" as="geometry"/>
                </mxCell>
                <mxCell id="108" style="edgeStyle=none;html=1;exitX=0.25;exitY=1;exitDx=0;exitDy=0;entryX=0.25;entryY=0;entryDx=0;entryDy=0;" parent="1" source="104" target="107" edge="1">
                    <mxGeometry relative="1" as="geometry"/>
                </mxCell>
                <mxCell id="104" value="SelectProductServlet" style="rounded=1;whiteSpace=wrap;html=1;" parent="1" vertex="1">
                    <mxGeometry x="165" y="710" width="190" height="40" as="geometry"/>
                </mxCell>
                <mxCell id="105" value="get" style="text;html=1;strokeColor=none;fillColor=none;align=center;verticalAlign=middle;whiteSpace=wrap;rounded=0;" parent="1" vertex="1">
                    <mxGeometry x="200" y="255" width="60" height="30" as="geometry"/>
                </mxCell>
                <mxCell id="106" value="get" style="text;html=1;strokeColor=none;fillColor=none;align=center;verticalAlign=middle;whiteSpace=wrap;rounded=0;" parent="1" vertex="1">
                    <mxGeometry x="200" y="680" width="60" height="30" as="geometry"/>
                </mxCell>
                <mxCell id="109" style="edgeStyle=none;html=1;exitX=0.25;exitY=1;exitDx=0;exitDy=0;entryX=0.75;entryY=0;entryDx=0;entryDy=0;" parent="1" source="107" target="79" edge="1">
                    <mxGeometry relative="1" as="geometry"/>
                </mxCell>
                <mxCell id="107" value="selectProduct.jsp" style="rounded=1;whiteSpace=wrap;html=1;" parent="1" vertex="1">
                    <mxGeometry x="165" y="820" width="190" height="40" as="geometry"/>
                </mxCell>
                <mxCell id="110" value="forward" style="text;html=1;strokeColor=none;fillColor=none;align=center;verticalAlign=middle;whiteSpace=wrap;rounded=0;" parent="1" vertex="1">
                    <mxGeometry x="207.5" y="770" width="60" height="30" as="geometry"/>
                </mxCell>
                <mxCell id="111" value="レスポンス" style="text;html=1;strokeColor=none;fillColor=none;align=center;verticalAlign=middle;whiteSpace=wrap;rounded=0;" parent="1" vertex="1">
                    <mxGeometry x="207.5" y="870" width="100" height="30" as="geometry"/>
                </mxCell>
                <mxCell id="116" style="edgeStyle=none;html=1;exitX=0.25;exitY=1;exitDx=0;exitDy=0;entryX=0.25;entryY=0;entryDx=0;entryDy=0;" parent="1" source="112" target="115" edge="1">
                    <mxGeometry relative="1" as="geometry"/>
                </mxCell>
                <mxCell id="112" value="SelectProductServlet" style="rounded=1;whiteSpace=wrap;html=1;" parent="1" vertex="1">
                    <mxGeometry x="200" y="1150" width="190" height="40" as="geometry"/>
                </mxCell>
                <mxCell id="113" value="post" style="text;html=1;strokeColor=none;fillColor=none;align=center;verticalAlign=middle;whiteSpace=wrap;rounded=0;" parent="1" vertex="1">
                    <mxGeometry x="215" y="1120" width="60" height="30" as="geometry"/>
                </mxCell>
                <mxCell id="118" style="edgeStyle=none;html=1;exitX=0.25;exitY=1;exitDx=0;exitDy=0;" parent="1" source="115" target="84" edge="1">
                    <mxGeometry relative="1" as="geometry"/>
                </mxCell>
                <mxCell id="115" value="resultSelectProduct.jsp" style="rounded=1;whiteSpace=wrap;html=1;" parent="1" vertex="1">
                    <mxGeometry x="200" y="1250" width="190" height="40" as="geometry"/>
                </mxCell>
                <mxCell id="117" value="forward" style="text;html=1;strokeColor=none;fillColor=none;align=center;verticalAlign=middle;whiteSpace=wrap;rounded=0;" parent="1" vertex="1">
                    <mxGeometry x="245" y="1210" width="60" height="30" as="geometry"/>
                </mxCell>
                <mxCell id="119" value="レスポンス" style="text;html=1;strokeColor=none;fillColor=none;align=center;verticalAlign=middle;whiteSpace=wrap;rounded=0;" parent="1" vertex="1">
                    <mxGeometry x="220" y="1320" width="90" height="30" as="geometry"/>
                </mxCell>
                <mxCell id="121" value="get" style="text;html=1;strokeColor=none;fillColor=none;align=center;verticalAlign=middle;whiteSpace=wrap;rounded=0;" parent="1" vertex="1">
                    <mxGeometry x="-80" y="715" width="60" height="30" as="geometry"/>
                </mxCell>
                <mxCell id="125" value="get" style="text;html=1;strokeColor=none;fillColor=none;align=center;verticalAlign=middle;whiteSpace=wrap;rounded=0;" parent="1" vertex="1">
                    <mxGeometry x="-40" y="270" width="60" height="30" as="geometry"/>
                </mxCell>
                <mxCell id="126" value="" style="shape=link;html=1;" parent="1" source="113" target="83" edge="1">
                    <mxGeometry width="100" relative="1" as="geometry">
                        <mxPoint x="230" y="1120" as="sourcePoint"/>
                        <mxPoint x="330" y="1120" as="targetPoint"/>
                    </mxGeometry>
                </mxCell>
                <mxCell id="127" value="リクエストスコープ&lt;br&gt;内容：検索結果（List）&lt;br&gt;属性名：resultSelectProduct" style="shape=process;whiteSpace=wrap;html=1;backgroundOutline=1;" parent="1" vertex="1">
                    <mxGeometry x="460" y="1150" width="300" height="140" as="geometry"/>
                </mxCell>
                <mxCell id="128" value="" style="shape=flexArrow;endArrow=classic;html=1;" parent="1" source="112" target="127" edge="1">
                    <mxGeometry width="50" height="50" relative="1" as="geometry">
                        <mxPoint x="250" y="1250" as="sourcePoint"/>
                        <mxPoint x="300" y="1200" as="targetPoint"/>
                    </mxGeometry>
                </mxCell>
                <mxCell id="129" value="" style="curved=1;endArrow=classic;html=1;" parent="1" source="115" target="115" edge="1">
                    <mxGeometry width="50" height="50" relative="1" as="geometry">
                        <mxPoint x="250" y="1370" as="sourcePoint"/>
                        <mxPoint x="300" y="1320" as="targetPoint"/>
                        <Array as="points">
                            <mxPoint x="490" y="1300"/>
                            <mxPoint x="520" y="1210"/>
                        </Array>
                    </mxGeometry>
                </mxCell>
            </root>
        </mxGraphModel>
    </diagram>
</mxfile>